<?xml version="1.0" encoding="utf-8"?>
<!-- Generator: Adobe Illustrator 25.1.0, SVG Export Plug-In . SVG Version: 6.00 Build 0)  -->
<svg version="1.1" id="Layer_1" xmlns="http://www.w3.org/2000/svg" xmlns:xlink="http://www.w3.org/1999/xlink" x="0px" y="0px"
	 viewBox="0 0 408.1 102.1" style="enable-background:new 0 0 408.1 102.1;" xml:space="preserve">
<g>
	<g>
		<g>
			<path d="M405.2,2.9c2,2,2.9,4.3,2.9,7.1s-1,5.1-2.9,7.1c-2,2-4.3,3-7.1,3c-2.8,0-5.1-1-7.1-3s-3-4.3-3-7.1s1-5.1,3-7.1
				s4.3-2.9,7.1-2.9C400.9,0,403.2,0.9,405.2,2.9z M392,3.8c-1.7,1.7-2.5,3.8-2.5,6.2s0.8,4.5,2.5,6.2s3.7,2.5,6.1,2.5
				s4.4-0.8,6.1-2.5s2.5-3.8,2.5-6.2s-0.8-4.5-2.5-6.2s-3.7-2.6-6.1-2.6S393.7,2.1,392,3.8z M398.8,4.7c1,0,1.8,0.3,2.5,0.9
				c0.7,0.6,1,1.4,1,2.3c0,0.7-0.2,1.4-0.7,1.9c-0.4,0.5-1,0.9-1.7,1.1l2.7,4.4h-1.8l-2.3-4.1H396v4h-1.5V4.7H398.8z M396,10h2.5
				c0.6,0,1.1-0.2,1.5-0.6c0.4-0.4,0.6-0.9,0.6-1.5s-0.2-1.1-0.6-1.5s-0.9-0.6-1.5-0.6H396V10z"/>
		</g>
		<path d="M62.8-0.1c-15.2,0-17,12.9-17.6,27.2l-0.8,37.4c0,6.4-3.1,6.4-4.2,6.4c-1,0-4.2,0-4.2-6.4l-0.8-37.4
			C34.5,12.8,32.7-0.1,17.6-0.1C4.7-0.1,0,7.5,0,27.9v47.7c0,3.2,2.6,5.8,5.8,5.8s5.8-2.6,5.8-5.8V27c0-15.2,2.7-16.4,6-16.4
			c3,0,6,1.9,6,16.4l0.8,35c0,14.3,8.1,19.5,15.7,19.6h0.3l0,0C48,81.5,56.1,76.3,56.1,62l0.8-35.1c0-14.4,3-16.4,6-16.4
			c3.3,0,6,1.2,6,16.4v53.2h11.7V27.8C80.5,7.4,75.7-0.1,62.8-0.1z"/>
	</g>
	<g>
		<g>
			<g>
				<path d="M132.9,30c0-0.2,0-2,0-2.2c-0.2-3.2,2.3-5.8,5.5-5.8l0,0c3.1,0,5.5,2.5,5.5,5.5v52.6h-11.2v-1.5c0-1.2,0.1-3,0.2-5.4
					c-3.7,5.6-9.2,8.3-16.4,8.3c-7.6,0-13.6-2.8-17.9-8.4c-4.3-5.6-6.5-12.7-6.5-21.3c0-8.4,2.2-15.4,6.7-21.1s10.5-8.5,18.1-8.5
					C124,22.1,129.3,24.7,132.9,30z M107.9,38c-2.7,3.7-4.1,8.2-4.1,13.7c0,5.6,1.3,10.2,3.9,13.8c2.6,3.6,6.1,5.4,10.3,5.4
					c4.4,0,7.9-1.8,10.5-5.3c2.6-3.5,3.9-8.2,3.9-13.9s-1.3-10.3-3.9-13.9c-2.6-3.5-6-5.3-10.4-5.3C114.1,32.5,110.7,34.4,107.9,38z
					"/>
				<path d="M159.8,102.1l9.7-24.1l-16.7-48.2c-1.3-3.9,1.5-7.9,5.6-7.9l0,0c2.6,0,4.9,1.7,5.7,4.2l10.7,33.7c0.3,1,0.7,2.6,1,4.7
					h0.1c0.7-2.8,1.1-4.4,1.2-4.7l11.4-33.9c0.8-2.4,3.1-4,5.6-4l0,0c4.1,0,7,4.1,5.5,8l-27,72.2H159.8z"/>
				<path d="M209.4,80.1V6.4c0-3.2,2.6-5.8,5.8-5.8l0,0c3.2,0,5.8,2.6,5.8,5.8v73.7H209.4z M257.4,80.1h-14.5l-20.2-30.7l18-25.1
					c1.1-1.5,2.8-2.3,4.6-2.3l0,0c4.7,0,7.3,5.4,4.5,9.1l-14,18.2L257.4,80.1z"/>
				<path d="M300.8,29.9c4.4,5.2,6.6,12.1,6.6,20.5c0,2.2,0,4.1-0.1,5.7H271c0.2,4.1,1.5,7.6,4,10.6c2.5,3,5.7,4.5,9.7,4.5
					c5,0,9-2.7,12-8.1l8.1,5.6c-2,3.9-4.7,7-8.2,9.4c-3.5,2.4-7.6,3.6-12.4,3.6c-7.8,0-14-2.9-18.6-8.6s-6.9-12.9-6.9-21.3
					s2.3-15.4,6.9-21.1s10.7-8.5,18.3-8.5C290.7,22,296.4,24.6,300.8,29.9z M274.6,36.6c-2.4,2.8-3.7,6.2-3.8,10.1h25.1
					c-0.2-4.2-1.3-7.7-3.5-10.4c-2.2-2.7-5-4-8.5-4C280.1,32.4,277,33.8,274.6,36.6z"/>
				<path d="M347.9,22.7v11.2c-1.7-0.5-3.2-0.7-4.6-0.7c-3.5,0-6.5,1.1-9,3.3c-2.5,2.2-3.8,5.4-3.8,9.5v34h-11.7V27.4
					c0-3,2.4-5.4,5.4-5.4l0,0c3,0,5.4,2.4,5.4,5.4v2c3.3-4.8,8.1-7.2,14.5-7.2C345.4,22.2,346.6,22.4,347.9,22.7z"/>
				<path d="M385,31.6L385,31.6c-1.4,2.1-4.2,2.8-6.5,1.8c-1.9-0.9-3.9-1.3-6.1-1.3c-2.5,0-4.6,0.6-6,1.7c-1.5,1.1-2.2,2.6-2.2,4.5
					c0,1.7,0.6,3.1,1.8,4.2c1.2,1.1,3.1,2.2,5.8,3.2l5,1.7c8.5,3.1,12.7,8.6,12.7,16.4c0,4.8-1.9,8.9-5.7,12.5
					c-3.8,3.5-8.8,5.3-14.9,5.3c-7.7,0-13.7-2.3-18.1-6.9l6.1-8.4c3.5,3.3,7.4,5,11.7,5c2.7,0.1,4.9-0.6,6.6-2
					c1.7-1.4,2.5-3.1,2.5-5.2c0-3.4-2.5-5.9-7.4-7.6l-6.2-2.2c-7.9-2.8-11.8-7.9-11.8-15.4c0-5,1.9-9.1,5.6-12.3s8.3-4.7,13.9-4.7
					c4.2,0,7.9,0.7,11.1,2.2C385.8,25.3,386.8,29,385,31.6z"/>
			</g>
		</g>
	</g>
</g>
</svg>
